# xmcd CD database file
#
# Track frame offsets:
#	150
#	21594
#	49384
#	81574
#	105940
#	130038
#	180212
#	219189
#	239856
#
# Disc length: 3732 seconds
#
# Revision: 0
# Processed by: cddbd v1.5.2PL0 Copyright (c) Steve Scherf et al.
# Submitted via: CDex 1.51
#
DISCID=780e9209
DTITLE=Bernd Reincke Quintet - on the rush
DYEAR=2006
DGENRE=Jazz
TTITLE0=17 - 46
TTITLE1=dog whistle
TTITLE2=grew`s tune
TTITLE3=alleys end
TTITLE4=spring can really hang you up the most
TTITLE5=mocking bird song
TTITLE6=self portrait in three colours
TTITLE7=on the rush
TTITLE8=jinrikisha
EXTD=YEAR: 2006
EXTT0=
EXTT1=
EXTT2=
EXTT3=
EXTT4=
EXTT5=
EXTT6=
EXTT7=
EXTT8=
PLAYORDER=
